<svg width="38" height="29" viewBox="0 0 38 29" fill="none" xmlns="http://www.w3.org/2000/svg">
<path d="M34.7012 2.949C36.8476 5.22754 38 7.78462 38 11.9298C38 19.2203 32.8823 25.7562 25.4363 28.9863L23.5765 26.1163C30.5249 22.3567 31.883 17.4805 32.4257 14.4055C31.307 14.984 29.8425 15.1875 28.4069 15.0544C24.6477 14.7059 21.685 11.62 21.685 7.78462C21.685 3.75754 24.9497 0.492954 28.9767 0.492954C31.2123 0.492954 33.3501 1.51483 34.7012 2.949ZM13.8679 2.949C16.0142 5.22754 17.1667 7.78462 17.1667 11.9298C17.1667 19.2203 12.049 25.7562 4.60292 28.9863L2.74312 26.1163C9.69167 22.3567 11.0496 17.4805 11.5925 14.4055C10.4737 14.984 9.00916 15.1875 7.57354 15.0544C3.81437 14.7059 0.851665 11.62 0.851665 7.78462C0.851665 3.75754 4.11625 0.492954 8.14333 0.492954C10.379 0.492954 12.5167 1.51483 13.8679 2.949Z" fill="#A4A5A5"/>
</svg>
